<svg width="311" height="860" viewBox="0 0 311 860" fill="none" xmlns="http://www.w3.org/2000/svg">
<path fill-rule="evenodd" clip-rule="evenodd" d="M310.649 1.86906L2.26231 214.388L1.27454 212.519L309.661 -2.13868e-05L310.649 1.86906Z" fill="#B095FF"/>
<path fill-rule="evenodd" clip-rule="evenodd" d="M310.001 491.505L1.27449 704.258L2.26227 706.127L310.989 493.374L310.001 491.505Z" fill="#F2AF29"/>
<path fill-rule="evenodd" clip-rule="evenodd" d="M310.966 646.384L0.987779 860L0 858.131L309.979 644.515L310.966 646.384Z" fill="#B095FF"/>
<path fill-rule="evenodd" clip-rule="evenodd" d="M310.977 319.758L2.26231 532.503L1.27454 530.634L309.99 317.889L310.977 319.758Z" fill="#B095FF"/>
<path fill-rule="evenodd" clip-rule="evenodd" d="M311 141.433L2.26231 354.194L1.27454 352.325L310.012 139.564L311 141.433Z" fill="#F2AF29"/>
<path fill-rule="evenodd" clip-rule="evenodd" d="M310.314 0.829335L1.76847 858.895L0 858.066L308.546 0.000120593L310.314 0.829335Z" fill="#AD343E"/>
</svg>
