<svg width="100" height="70" viewBox="0 0 256 62" fill="none" xmlns="http://www.w3.org/2000/svg">
<path d="M233.879 27.4C231.052 27.4 227.852 27.9333 224.279 29V59H210.279V16.6H222.679L223.479 20.6C225.986 18.9467 228.546 17.7467 231.159 17C233.826 16.2 236.066 15.8 237.879 15.8H241.479C245.106 15.8 248.012 16.8933 250.199 19.08C252.386 21.2667 253.479 24.1733 253.479 27.8V59H239.479V30.2C239.479 29.4 239.212 28.7333 238.679 28.2C238.146 27.6667 237.479 27.4 236.679 27.4H233.879Z" fill="#0F1020"/>
<path fill-rule="evenodd" clip-rule="evenodd" d="M226.279 61H208.279V14.6H224.319L224.884 17.4284C226.748 16.422 228.653 15.6371 230.597 15.0807C233.356 14.2536 235.8 13.8 237.879 13.8H241.479C245.537 13.8 248.987 15.0395 251.613 17.6658C254.24 20.292 255.479 23.7417 255.479 27.8V61H237.479V30.2C237.479 29.8947 237.399 29.748 237.265 29.6142C237.131 29.4805 236.984 29.4 236.679 29.4H233.879C231.66 29.4 229.131 29.7607 226.279 30.5143V61ZM224.279 29C227.852 27.9333 231.052 27.4 233.879 27.4H236.679C237.479 27.4 238.146 27.6667 238.679 28.2C239.212 28.7333 239.479 29.4 239.479 30.2V59H253.479V27.8C253.479 24.1733 252.386 21.2667 250.199 19.08C248.012 16.8933 245.106 15.8 241.479 15.8H237.879C236.066 15.8 233.826 16.2 231.159 17C229.174 17.5672 227.22 18.396 225.296 19.4863C224.687 19.8314 224.082 20.2026 223.479 20.6L222.679 16.6H210.279V59H224.279V29Z" fill="#B095FF"/>
<path d="M206.537 18.2V59H192.537V29H186.537V18.2H206.537ZM192.537 2.2H206.537V13.4H192.537V2.2Z" fill="#0F1020"/>
<path fill-rule="evenodd" clip-rule="evenodd" d="M208.537 16.2V61H190.537V31H184.537V16.2H208.537ZM192.537 29V59H206.537V18.2H186.537V29H192.537ZM190.537 0.199997H208.537V15.4H190.537V0.199997ZM192.537 2.2V13.4H206.537V2.2H192.537Z" fill="#B095FF"/>
<path d="M166.998 42.2L174.198 16.6H189.398L176.198 59H161.398L153.398 33.4L145.398 59H130.598L117.398 16.6H132.598L139.798 42.2L146.998 16.6H159.798L166.998 42.2Z" fill="#0F1020"/>
<path fill-rule="evenodd" clip-rule="evenodd" d="M176.198 59H161.398L153.398 33.4L145.398 59H130.598L117.398 16.6H132.598L139.798 42.2L146.998 16.6H159.798L166.998 42.2L174.198 16.6H189.398L176.198 59ZM166.998 34.813L172.683 14.6H192.116L177.67 61H159.928L153.398 40.1052L146.869 61H129.126L114.681 14.6H134.113L139.798 34.813L145.483 14.6H161.313L166.998 34.813Z" fill="#B095FF"/>
<path d="M114.64 28.2C111.28 28.2 107.814 29 104.24 30.6V59H90.2404V16.6H102.64L103.44 21.8C108.027 17.8 112.827 15.8 117.84 15.8H121.44V28.2H114.64Z" fill="#0F1020"/>
<path fill-rule="evenodd" clip-rule="evenodd" d="M106.24 61H88.2404V14.6H104.356L104.898 18.1214C108.971 15.2844 113.292 13.8 117.84 13.8H123.44V30.2H114.64C111.963 30.2 109.167 30.7613 106.24 31.9253V61ZM104.24 30.6C107.814 29 111.28 28.2 114.64 28.2H121.44V15.8H117.84C113.479 15.8 109.278 17.3139 105.24 20.3417C104.636 20.794 104.036 21.2801 103.44 21.8L102.64 16.6H90.2404V59H104.24V30.6Z" fill="#B095FF"/>
<path d="M63.297 25.8C61.1637 25.8 60.097 26.8667 60.097 29V33.4H73.697V29C73.697 26.8667 72.6304 25.8 70.497 25.8H63.297ZM86.097 58.2C75.8037 59.2667 66.4703 59.8 58.097 59.8C54.4703 59.8 51.5637 58.7067 49.377 56.52C47.1903 54.3333 46.097 51.4267 46.097 47.8V28.6C46.097 24.6 47.217 21.48 49.457 19.24C51.7503 16.9467 54.897 15.8 58.897 15.8H74.897C78.897 15.8 82.017 16.9467 84.257 19.24C86.5504 21.48 87.697 24.6 87.697 28.6V43.4H60.097V46.6C60.097 47.4 60.3637 48.0667 60.897 48.6C61.4303 49.1333 62.097 49.4 62.897 49.4C68.177 49.4 75.9104 49 86.097 48.2V58.2Z" fill="#0F1020"/>
<path fill-rule="evenodd" clip-rule="evenodd" d="M88.097 60.0035L86.3032 60.1894C75.9566 61.2615 66.553 61.8 58.097 61.8C54.0387 61.8 50.5891 60.5605 47.9628 57.9342C45.3365 55.308 44.097 51.8583 44.097 47.8V28.6C44.097 24.2163 45.3354 20.5332 48.0428 17.8258C50.7948 15.0737 54.4979 13.8 58.897 13.8H74.897C79.2851 13.8 82.9678 15.068 85.6712 17.8256C88.4289 20.529 89.697 24.2118 89.697 28.6V45.4H62.097V46.6C62.097 46.9053 62.1775 47.052 62.3112 47.1858C62.445 47.3195 62.5917 47.4 62.897 47.4C68.0967 47.4 75.7673 47.0051 85.9404 46.2061L88.097 46.0368V60.0035ZM60.097 43.4H87.697V28.6C87.697 24.6 86.5504 21.48 84.257 19.24C82.017 16.9467 78.897 15.8 74.897 15.8H58.897C54.897 15.8 51.7503 16.9467 49.457 19.24C47.217 21.48 46.097 24.6 46.097 28.6V47.8C46.097 51.4267 47.1903 54.3333 49.377 56.52C51.5637 58.7067 54.4703 59.8 58.097 59.8C66.4703 59.8 75.8037 59.2667 86.097 58.2V48.2C85.4195 48.2532 84.7528 48.3047 84.097 48.3543C74.8925 49.0514 67.8258 49.4 62.897 49.4C62.097 49.4 61.4303 49.1333 60.897 48.6C60.3637 48.0667 60.097 47.4 60.097 46.6V43.4ZM62.3112 28.0142C62.2853 28.0402 62.097 28.2416 62.097 29V31.4H71.697V29C71.697 28.2416 71.5088 28.0402 71.4828 28.0142C71.4568 27.9882 71.2554 27.8 70.497 27.8H63.297C62.5386 27.8 62.3372 27.9882 62.3112 28.0142ZM73.697 29C73.697 26.8667 72.6304 25.8 70.497 25.8H63.297C61.1637 25.8 60.097 26.8667 60.097 29V33.4H73.697V29Z" fill="#B095FF"/>
<path d="M16.5412 42.2V59H2.54123V3H16.5412V31.4H22.9412L31.7412 16.6H46.5412L34.5412 37L46.5412 59H31.7412L22.5412 42.2H16.5412Z" fill="#0F1020"/>
<path fill-rule="evenodd" clip-rule="evenodd" d="M31.7412 59L22.5412 42.2H16.5412V59H2.54123V3H16.5412V31.4H22.9412L31.7412 16.6H46.5412L34.5412 37L46.5412 59H31.7412ZM36.8397 37.0372L49.9103 61H30.5562L21.3562 44.2H18.5412V61H0.541229V1H18.5412V29.4H21.8036L30.6036 14.6H50.0381L36.8397 37.0372Z" fill="#B095FF"/>
</svg>
