<svg width="130" height="88" viewBox="0 0 130 88" fill="none" xmlns="http://www.w3.org/2000/svg">
<path d="M113.511 59.3319C111.133 59.3319 108.441 59.8158 105.435 60.7835V88H93.6568V49.534H104.089L104.762 53.1629C106.87 51.6629 109.024 50.5743 111.223 49.8969C113.466 49.1711 115.351 48.8082 116.876 48.8082H119.905C122.956 48.8082 125.401 49.8001 127.241 51.7839C129.08 53.7677 130 56.4047 130 59.6948V88H118.222V61.8721C118.222 61.1464 117.998 60.5416 117.549 60.0577C117.1 59.5739 116.54 59.3319 115.867 59.3319H113.511Z" fill="#0F1020"/>
<path d="M92.801 50.9856V88H81.0231V60.7835H75.9755V50.9856H92.801ZM81.0231 36.4701H92.801V46.6309H81.0231V36.4701Z" fill="#0F1020"/>
<path d="M57.6797 72.7588L63.7369 49.534H76.5244L65.4195 88H52.9686L46.2383 64.7753L39.5081 88H27.0572L15.9523 49.534H28.7397L34.7969 72.7588L40.8542 49.534H51.6225L57.6797 72.7588Z" fill="#0F1020"/>
<path d="M90.8858 22.8618C88.0591 22.8618 85.1427 23.5876 82.1365 25.0392V50.8041H70.3586V12.3381H80.7905L81.4635 17.0557C85.3222 13.4268 89.3603 11.6124 93.5779 11.6124H96.6065V22.8618H90.8858Z" fill="#0F1020"/>
<path d="M49.3074 20.6845C47.5127 20.6845 46.6153 21.6522 46.6153 23.5876V27.5794H58.0567V23.5876C58.0567 21.6522 57.1594 20.6845 55.3646 20.6845H49.3074ZM68.4886 50.0783C59.829 51.046 51.9771 51.5299 44.9328 51.5299C41.8817 51.5299 39.4364 50.538 37.5968 48.5542C35.7572 46.5704 34.8374 43.9335 34.8374 40.6433V23.2247C34.8374 19.5959 35.7797 16.7654 37.6641 14.7332C39.5935 12.6526 42.2407 11.6124 45.6058 11.6124H59.0663C62.4314 11.6124 65.0562 12.6526 66.9406 14.7332C68.87 16.7654 69.8346 19.5959 69.8346 23.2247V36.6515H46.6153V39.5546C46.6153 40.2804 46.8397 40.8852 47.2884 41.3691C47.737 41.8529 48.2979 42.0948 48.9709 42.0948C53.4129 42.0948 59.9188 41.7319 68.4886 41.0062V50.0783Z" fill="#0F1020"/>
<path d="M12.2302 35.5629V50.8041H0.452271V0H12.2302V25.7649H17.6144L25.0176 12.3381H37.4685L27.3732 30.8454L37.4685 50.8041H25.0176L17.2778 35.5629H12.2302Z" fill="#0F1020"/>
</svg>
